<svg xmlns="http://www.w3.org/2000/svg" width="1280" height="900" viewBox="0 0 1280 900" data-normative="false" aria-label="Stage-03 structural visual preview">
<style>rect,line{fill:none;stroke:currentColor;stroke-width:2} text{fill:currentColor;font-family:sans-serif;font-size:14px} .small{font-size:11px}</style>
<text x="20" y="24">STRUCTURAL PREVIEW ONLY — NO NEW VISUAL AUTHORITY</text>
<rect x="20" y="40" width="1240" height="56"/><text x="32" y="74">CORE-01-VIS-CONTEXT · top full width; h=56px</text>
<rect x="20" y="112" width="260" height="748"/><text x="32" y="140">CORE-01-VIS-LEFT</text>
<rect x="296" y="112" width="648" height="72"/><text x="308" y="140">CORE-01-VIS-CENTER-HEADER</text>
<rect x="296" y="200" width="648" height="420"/><text x="308" y="228">CORE-01-VIS-MESSAGES</text>
<rect x="296" y="636" width="648" height="88"/><text x="308" y="664">CORE-01-VIS-DECISION</text>
<rect x="296" y="740" width="648" height="40"/><text x="308" y="766">CORE-01-VIS-RUNTIME</text>
<rect x="296" y="796" width="648" height="64"/><text x="308" y="824">CORE-01-VIS-COMPOSER</text>
<rect x="960" y="112" width="300" height="220"/><text x="972" y="140">CORE-01-VIS-RIGHT-CORE</text>
<rect x="960" y="348" width="300" height="220"/><text x="972" y="376">CORE-01-VIS-RIGHT-TOPIC</text>
<rect x="960" y="584" width="300" height="276"/><text x="972" y="612">CORE-01-VIS-RIGHT-VERSION</text>
<text class="small" x="20" y="888">Derived only from exact Stage-01 geometry. Palette/style authority is not redefined.</text>
</svg>